<?xml version="1.0" encoding="UTF-8" standalone="no"?>
<svg
   version="1.1"
   width="512px"
   height="512px"
   style="shape-rendering:geometricPrecision; text-rendering:geometricPrecision; image-rendering:optimizeQuality; fill-rule:evenodd; clip-rule:evenodd"
   id="svg17"
   sodipodi:docname="full-icon.svg"
   inkscape:version="1.4.2 (ebf0e940d0, 2025-05-08)"
   xmlns:inkscape="http://www.inkscape.org/namespaces/inkscape"
   xmlns:sodipodi="http://sodipodi.sourceforge.net/DTD/sodipodi-0.dtd"
   xmlns="http://www.w3.org/2000/svg"
   xmlns:svg="http://www.w3.org/2000/svg">
  <defs
     id="defs17" />
  <sodipodi:namedview
     id="namedview17"
     pagecolor="#ffffff"
     bordercolor="#666666"
     borderopacity="1.0"
     inkscape:showpageshadow="2"
     inkscape:pageopacity="0.0"
     inkscape:pagecheckerboard="0"
     inkscape:deskcolor="#d1d1d1"
     inkscape:zoom="1.6972656"
     inkscape:cx="255.70541"
     inkscape:cy="256"
     inkscape:window-width="1920"
     inkscape:window-height="1018"
     inkscape:window-x="0"
     inkscape:window-y="0"
     inkscape:window-maximized="0"
     inkscape:current-layer="svg17" />
  <g
     id="g2">
    <path
       style="opacity:1"
       fill="#3a4c5b"
       d="M 73.5,63.5 C 130.501,63.3333 187.501,63.5 244.5,64C 257.058,73.2246 267.558,84.3912 276,97.5C 283.654,107.23 293.154,114.397 304.5,119C 313.262,120.124 322.095,120.624 331,120.5C 351.346,120.188 371.679,119.522 392,118.5C 396.713,118.279 401.213,119.112 405.5,121C 426.667,140.833 447.167,161.333 467,182.5C 468.92,185.339 470.587,188.339 472,191.5C 473.655,268.789 473.988,346.123 473,423.5C 470.403,437.096 462.236,444.93 448.5,447C 369.833,447.667 291.167,447.667 212.5,447C 201.381,443.881 194.214,436.714 191,425.5C 190.5,413.505 190.333,401.505 190.5,389.5C 151.165,389.667 111.832,389.5 72.5,389C 65.3149,386.5 59.8149,382 56,375.5C 54.3404,277.223 54.007,178.89 55,80.5C 58.2067,71.4542 64.3734,65.7875 73.5,63.5 Z"
       id="path2" />
  </g>
  <g
     id="g3">
    <path
       style="opacity:1"
       fill="#f7f6f4"
       d="M 73.5,78.5 C 126.833,78.5 180.167,78.5 233.5,78.5C 234.141,97.8262 234.641,117.16 235,136.5C 237.813,144.315 243.313,148.815 251.5,150C 269.497,150.5 287.497,150.667 305.5,150.5C 305.667,223.167 305.5,295.834 305,368.5C 303.01,372.49 299.843,374.99 295.5,376C 222.833,376.667 150.167,376.667 77.5,376C 72.1201,374.113 68.9534,370.279 68,364.5C 67.3333,271.5 67.3333,178.5 68,85.5C 69.6665,83.0043 71.4998,80.671 73.5,78.5 Z"
       id="path3" />
  </g>
  <g
     id="g4">
    <path
       style="opacity:1"
       fill="#a7b2b8"
       d="M 247.5,85.5 C 265.297,101.463 282.297,118.297 298.5,136C 282.167,136.667 265.833,136.667 249.5,136C 249,135.5 248.5,135 248,134.5C 247.5,118.17 247.333,101.837 247.5,85.5 Z"
       id="path4" />
  </g>
  <g
     id="g5">
    <path
       style="opacity:1"
       fill="#285f96"
       d="M 114.5,128.5 C 129.667,126.83 140.5,132.83 147,146.5C 147.667,152.167 147.667,157.833 147,163.5C 144.808,165.235 142.308,166.402 139.5,167C 129.5,167.333 119.5,167.667 109.5,168C 110.433,179.979 116.766,184.312 128.5,181C 131.255,179.289 133.589,177.122 135.5,174.5C 139.322,176.041 142.822,178.041 146,180.5C 146.553,183.82 145.386,186.486 142.5,188.5C 133.595,195.178 123.595,197.345 112.5,195C 102.566,192.067 96.3998,185.567 94,175.5C 93.0799,165.758 93.4133,156.092 95,146.5C 97.1267,142.411 99.6267,138.577 102.5,135C 106.434,132.536 110.434,130.369 114.5,128.5 Z"
       id="path5" />
  </g>
  <g
     id="g6">
    <path
       style="opacity:1"
       fill="#235c95"
       d="M 180.5,129.5 C 193.373,126.492 202.54,130.826 208,142.5C 208.5,159.497 208.667,176.497 208.5,193.5C 203.5,193.5 198.5,193.5 193.5,193.5C 193.306,177.159 192.806,160.826 192,144.5C 186.649,142.896 181.482,143.396 176.5,146C 175.54,147.419 174.707,148.919 174,150.5C 173.137,164.823 172.637,179.156 172.5,193.5C 167.5,193.5 162.5,193.5 157.5,193.5C 157.5,172.5 157.5,151.5 157.5,130.5C 161.846,130.334 166.179,130.501 170.5,131C 171.249,132.734 171.749,134.567 172,136.5C 174.628,133.79 177.461,131.456 180.5,129.5 Z"
       id="path6" />
  </g>
  <g
     id="g7">
    <path
       style="opacity:1"
       fill="#f7f7f5"
       d="M 313.5,133.5 C 338.995,132.502 364.661,132.169 390.5,132.5C 390.333,151.17 390.5,169.836 391,188.5C 392.634,197.134 397.8,201.968 406.5,203C 424.164,203.5 441.83,203.667 459.5,203.5C 459.667,276.167 459.5,348.834 459,421.5C 458.438,424.872 456.938,427.705 454.5,430C 373.248,431.661 291.915,431.994 210.5,431C 207.572,429.74 205.739,427.573 205,424.5C 204.5,412.838 204.333,401.171 204.5,389.5C 235.495,388.827 266.495,388.327 297.5,388C 307.549,386.404 314.382,380.904 318,371.5C 319.652,295.203 319.985,218.869 319,142.5C 317.303,139.328 315.47,136.328 313.5,133.5 Z"
       id="path7" />
  </g>
  <g
     id="g8">
    <path
       style="opacity:1"
       fill="#f3f3f3"
       d="M 115.5,141.5 C 127.679,139.358 133.679,144.358 133.5,156.5C 125.167,156.5 116.833,156.5 108.5,156.5C 108.351,153.393 108.851,150.393 110,147.5C 112.04,145.63 113.873,143.63 115.5,141.5 Z"
       id="path8" />
  </g>
  <g
     id="g9">
    <path
       style="opacity:1"
       fill="#a8b3b9"
       d="M 404.5,140.5 C 421.662,155.496 437.662,171.662 452.5,189C 436.592,189.824 420.759,189.657 405,188.5C 404.5,172.503 404.333,156.503 404.5,140.5 Z"
       id="path9" />
  </g>
  <g
     id="g10">
    <path
       style="opacity:1"
       fill="#245d95"
       d="M 367.5,211.5 C 371.167,211.5 374.833,211.5 378.5,211.5C 378.206,216.261 377.373,220.928 376,225.5C 371.937,227.053 367.77,228.553 363.5,230C 361.106,231.952 359.606,234.452 359,237.5C 358.5,250.496 358.333,263.496 358.5,276.5C 353.5,276.5 348.5,276.5 343.5,276.5C 343.5,255.167 343.5,233.833 343.5,212.5C 347.833,212.5 352.167,212.5 356.5,212.5C 356.298,214.989 356.798,217.323 358,219.5C 360.775,216.22 363.942,213.554 367.5,211.5 Z"
       id="path10" />
  </g>
  <g
     id="g11">
    <path
       style="opacity:1"
       fill="#265f95"
       d="M 385.5,212.5 C 390.167,212.5 394.833,212.5 399.5,212.5C 399.333,225.504 399.5,238.504 400,251.5C 400.616,261.929 405.783,265.096 415.5,261C 416.893,259.829 417.727,258.329 418,256.5C 418.389,241.826 418.889,227.159 419.5,212.5C 424.833,212.5 430.167,212.5 435.5,212.5C 435.5,233.833 435.5,255.167 435.5,276.5C 430.786,276.827 426.12,276.493 421.5,275.5C 420.917,273.998 420.084,272.665 419,271.5C 416.33,274.25 413.164,276.083 409.5,277C 398.191,279.928 390.358,276.095 386,265.5C 385.5,247.836 385.333,230.17 385.5,212.5 Z"
       id="path11" />
  </g>
  <g
     id="g12">
    <path
       style="opacity:1"
       fill="#627682"
       d="M 95.5,231.5 C 155.834,231.333 216.168,231.5 276.5,232C 282.396,235.042 283.062,239.042 278.5,244C 217.167,244.667 155.833,244.667 94.5,244C 91.6579,239.572 91.9912,235.406 95.5,231.5 Z"
       id="path12" />
  </g>
  <g
     id="g13">
    <path
       style="opacity:1"
       fill="#6a7d88"
       d="M 98.5,272.5 C 157.168,272.333 215.834,272.5 274.5,273C 281.426,274.37 283.26,278.204 280,284.5C 278.829,285.893 277.329,286.727 275.5,287C 216.167,287.667 156.833,287.667 97.5,287C 92.8567,284.928 91.3567,281.428 93,276.5C 94.8121,275.023 96.6455,273.69 98.5,272.5 Z"
       id="path13" />
  </g>
  <g
     id="g14">
    <path
       style="opacity:1"
       fill="#6b7d89"
       d="M 349.5,302.5 C 375.502,302.333 401.502,302.5 427.5,303C 435.988,305.296 437.655,309.962 432.5,317C 403.5,317.667 374.5,317.667 345.5,317C 341.876,314.839 340.709,311.672 342,307.5C 344.17,305.177 346.67,303.51 349.5,302.5 Z"
       id="path14" />
  </g>
  <g
     id="g15">
    <path
       style="opacity:1"
       fill="#6c7f8a"
       d="M 98.5,313.5 C 133.502,313.333 168.502,313.5 203.5,314C 211.106,315.38 213.273,319.547 210,326.5C 208.509,328.004 206.676,328.837 204.5,329C 168.833,329.667 133.167,329.667 97.5,329C 92.9315,326.459 91.4315,322.625 93,317.5C 94.8121,316.023 96.6455,314.69 98.5,313.5 Z"
       id="path15" />
  </g>
  <g
     id="g16">
    <path
       style="opacity:1"
       fill="#6b7e89"
       d="M 347.5,344.5 C 374.835,344.333 402.169,344.5 429.5,345C 435.834,347.437 437.167,351.604 433.5,357.5C 432.624,358.251 431.624,358.751 430.5,359C 402.5,359.667 374.5,359.667 346.5,359C 341.566,356.335 340.399,352.502 343,347.5C 344.652,346.601 346.152,345.601 347.5,344.5 Z"
       id="path16" />
  </g>
  <g
     id="g17">
    <path
       style="opacity:1"
       fill="#697c87"
       d="M 347.5,385.5 C 374.169,385.333 400.835,385.5 427.5,386C 436.403,388.519 437.737,393.185 431.5,400C 403.167,400.667 374.833,400.667 346.5,400C 341.857,397.928 340.357,394.428 342,389.5C 343.5,387.531 345.333,386.198 347.5,385.5 Z"
       id="path17" />
  </g>
</svg>
